<svg xmlns="http://www.w3.org/2000/svg" xmlns:xlink="http://www.w3.org/1999/xlink" width="5853" height="2679" viewBox="0 0 5853 2679"><defs><linearGradient id="a" x1="0.911" y1="0.062" x2="0.079" y2="0.981" gradientUnits="objectBoundingBox"><stop offset="0" stop-color="#942ae8"/><stop offset="1" stop-color="#2d22d4"/></linearGradient><clipPath id="c"><rect width="5853" height="2679"/></clipPath></defs><g id="b" clip-path="url(#c)"><rect width="5853" height="2679" fill="url(#a)"/><text transform="matrix(0.788, -0.616, 0.616, 0.788, 4017.701, 1324.216)" fill="#fff" font-size="97" font-family="Nunito-Bold, Nunito" font-weight="700" opacity="0.1"><tspan x="-144.142" y="0">.Play()</tspan></text><text transform="matrix(0.883, 0.469, -0.469, 0.883, 1744.977, 1368.254)" fill="#fff" font-size="97" font-family="Nunito-Bold, Nunito" font-weight="700" opacity="0.1"><tspan x="-183.039" y="0">.Pause()</tspan></text><text transform="matrix(0.883, 0.469, -0.469, 0.883, 1068.977, 1665.254)" fill="#fff" font-size="97" font-family="Nunito-Bold, Nunito" font-weight="700" opacity="0.1"><tspan x="-178.917" y="0">.Playing</tspan></text><text transform="matrix(0.883, 0.469, -0.469, 0.883, 378.977, 1134.254)" fill="#fff" font-size="97" font-family="Nunito-Bold, Nunito" font-weight="700" opacity="0.1"><tspan x="-158.11" y="0">.Load()</tspan></text><text transform="matrix(0.883, 0.469, -0.469, 0.883, 4606.977, 1735.254)" fill="#fff" font-size="97" font-family="Nunito-Bold, Nunito" font-weight="700" opacity="0.1"><tspan x="-332.322" y="0">.CanPlayType()</tspan></text><text transform="matrix(0.883, 0.469, -0.469, 0.883, 5599.977, 1229.254)" fill="#fff" font-size="97" font-family="Nunito-Bold, Nunito" font-weight="700" opacity="0.1"><tspan x="-318.499" y="0">.DefaultMuted</tspan></text><text transform="matrix(0.883, 0.469, -0.469, 0.883, 273.977, 2504.254)" fill="#fff" font-size="97" font-family="Nunito-Bold, Nunito" font-weight="700" opacity="0.1"><tspan x="-255.061" y="0">.OnWaiting</tspan></text><text transform="matrix(0.883, 0.469, -0.469, 0.883, 1129.977, 126.254)" fill="#fff" font-size="97" font-family="Nunito-Bold, Nunito" font-weight="700" opacity="0.1"><tspan x="-443.29" y="0">.OnDurationChange</tspan></text><text transform="translate(2431.741 163.049) rotate(-14)" fill="#fff" font-size="97" font-family="Nunito-Bold, Nunito" font-weight="700" opacity="0.1"><tspan x="-350.267" y="0">.OnTimeUpdate</tspan></text><text transform="matrix(0.921, -0.391, 0.391, 0.921, 1794.503, 548.456)" fill="#fff" font-size="97" font-family="Nunito-Bold, Nunito" font-weight="700" opacity="0.1"><tspan x="-190.993" y="0">.Seeking</tspan></text><text transform="matrix(0.921, -0.391, 0.391, 0.921, 1075.503, 981.456)" fill="#fff" font-size="97" font-family="Nunito-Bold, Nunito" font-weight="700" opacity="0.1"><tspan x="-123.723" y="0">.Loop</tspan></text><text transform="matrix(0.921, -0.391, 0.391, 0.921, 518.503, 380.456)" fill="#fff" font-size="97" font-family="Nunito-Bold, Nunito" font-weight="700" opacity="0.1"><tspan x="-207.822" y="0">.Duration</tspan></text><text transform="matrix(0.921, -0.391, 0.391, 0.921, 4746.503, 981.456)" fill="#fff" font-size="97" font-family="Nunito-Bold, Nunito" font-weight="700" opacity="0.1"><tspan x="-292.31" y="0">.CurrentTime</tspan></text><text transform="matrix(0.921, -0.391, 0.391, 0.921, 5496.503, 314.456)" fill="#fff" font-size="97" font-family="Nunito-Bold, Nunito" font-weight="700" opacity="0.1"><tspan x="-292.31" y="0">.CurrentTime</tspan></text><text transform="matrix(0.921, -0.391, 0.391, 0.921, 3821.503, 809.456)" fill="#fff" font-size="97" font-family="Nunito-Bold, Nunito" font-weight="700" opacity="0.1"><tspan x="-323.883" y="0">.NetworkState</tspan></text><text transform="matrix(0.921, -0.391, 0.391, 0.921, 2185.503, 960.456)" fill="#fff" font-size="97" font-family="Nunito-Bold, Nunito" font-weight="700" opacity="0.1"><tspan x="-177.898" y="0">.Volume</tspan></text><text transform="matrix(0.875, 0.485, -0.485, 0.875, 3015.486, 440.988)" fill="#fff" font-size="97" font-family="Nunito-Bold, Nunito" font-weight="700" opacity="0.1"><tspan x="-292.31" y="0">.CurrentTime</tspan></text><text transform="translate(4428.055 394.07) rotate(20)" fill="#fff" font-size="97" font-family="Nunito-Bold, Nunito" font-weight="700" opacity="0.1"><tspan x="-270.678" y="0">.ReadyState</tspan></text><text transform="translate(1742 1980.713) rotate(-30)" fill="#fff" font-size="97" font-family="Nunito-Bold, Nunito" font-weight="700" opacity="0.1"><tspan x="-206.028" y="0">.Buffered</tspan></text><text transform="translate(1007 2418)" fill="#fff" font-size="97" font-family="Nunito-Bold, Nunito" font-weight="700" opacity="0.1"><tspan x="-153.697" y="0">.Muted</tspan></text><text transform="translate(450 1817)" fill="#fff" font-size="97" font-family="Nunito-Bold, Nunito" font-weight="700" opacity="0.1"><tspan x="-182.942" y="0">.Preload</tspan></text><text transform="matrix(0.875, -0.485, 0.485, 0.875, 5204.514, 2379.988)" fill="#fff" font-size="97" font-family="Nunito-Bold, Nunito" font-weight="700" opacity="0.1"><tspan x="-274.316" y="0">.OnProgress</tspan></text><text transform="matrix(0.875, -0.485, 0.485, 0.875, 4369.514, 2154.988)" fill="#fff" font-size="97" font-family="Nunito-Bold, Nunito" font-weight="700" opacity="0.1"><tspan x="-216.019" y="0">.Autoplay</tspan></text><text transform="translate(5428 1751)" fill="#fff" font-size="97" font-family="Nunito-Bold, Nunito" font-weight="700" opacity="0.1"><tspan x="-275.043" y="0">.CrossOrigin</tspan></text><text transform="translate(3521 2510)" fill="#fff" font-size="97" font-family="Nunito-Bold, Nunito" font-weight="700" opacity="0.1"><tspan x="-317.287" y="0">.PlaybackRate</tspan></text><text transform="matrix(0.839, 0.545, -0.545, 0.839, 2427.572, 2438.837)" fill="#fff" font-size="97" font-family="Nunito-Bold, Nunito" font-weight="700" opacity="0.1"><tspan x="-153.018" y="0">.Ended</tspan></text><text transform="matrix(0.914, -0.407, 0.407, 0.914, 3713.016, 99.233)" fill="#fff" font-size="97" font-family="Nunito-Bold, Nunito" font-weight="700" opacity="0.1"><tspan x="-211.508" y="0">.OnPause</tspan></text><g transform="translate(60 -78)"><text transform="translate(2838 1903)" fill="#fff" font-size="264" font-family="Nunito-Bold, Nunito" font-weight="700"><tspan x="-476.52" y="0">Vidazor</tspan></text><text transform="translate(2838 2196)" fill="#fff" font-size="104" font-family="Nunito-Regular, Nunito"><tspan x="-776.776" y="0">The HTML5 Video API For Blazor</tspan></text><g transform="translate(2156 542.167)"><path d="M194.774,738.694a57.7,57.7,0,0,1-50.8-30.3H28.856a28.855,28.855,0,1,1,0-57.71h116.8a58.128,58.128,0,0,1,20.587-19.874,57.621,57.621,0,0,1,60.795,2.317,57.885,57.885,0,0,1,20.91,25.391,57.63,57.63,0,0,1-5.321,54.728,57.885,57.885,0,0,1-25.392,20.91A57.341,57.341,0,0,1,194.774,738.694Zm291.909-30.3H339.05a28.855,28.855,0,1,1,0-57.71H448.975a220.517,220.517,0,0,0,37.706,57.708ZM429.756,562.676H115.421A115.551,115.551,0,0,1,0,447.256V115.421A115.552,115.552,0,0,1,115.421,0H623.273A115.552,115.552,0,0,1,738.695,115.421V301.537a28.855,28.855,0,1,1-57.711,0V115.421A57.776,57.776,0,0,0,623.273,57.71H115.421a57.776,57.776,0,0,0-57.711,57.711V447.256a57.776,57.776,0,0,0,57.711,57.711H436.784a221.433,221.433,0,0,0-7.039,55.5c0,.73,0,1.474.011,2.21ZM326.172,409.793a55.38,55.38,0,0,1-14.363-1.9,57.333,57.333,0,0,1-13.726-5.7A55.92,55.92,0,0,1,269.8,353.216V209.459a55.925,55.925,0,0,1,28.281-48.975,57.348,57.348,0,0,1,13.729-5.7,55.225,55.225,0,0,1,28.812.024,57.326,57.326,0,0,1,13.8,5.772l123.87,71.873a56.549,56.549,0,0,1,0,97.77L354.418,402.1a57.236,57.236,0,0,1-13.8,5.774A55.379,55.379,0,0,1,326.172,409.793Zm1.336-198.108V350.991l120.037-69.653Z" transform="translate(289 260)" fill="#fff"/><g transform="translate(773.799 561.671)"><path d="M420.147,19.582c-.37.43-2.242,3.6-4.162,7.034C390.638,72.023,363.1,94.869,316.9,108.808c-10.956,3.306-11.447,2.989-6.949-4.484a150.538,150.538,0,0,0,17.826-45.777c4.208-20.605,3.2-22.887-6.037-13.652-22.716,22.716-52.5,37.682-83.5,41.952-2.7.373-5.716.8-6.7.955s-19.572.44-41.311.639c-41.106.375-41.424.39-53.592,2.473C65.9,103.026,11.534,160.592,1.028,234.509c-1,7.069-1.166,34.081-.247,41.534,10.692,86.775,75.167,145.137,162.655,147.235,69.907,1.676,129.142-20.591,175.791-66.081,10.414-10.154,10.624-11.907.688-5.744C262.806,399.281,157.823,409.4,98.826,374.681,1.731,317.548,9.247,175.95,111.806,130.112,202.227,89.7,301.821,153.746,306.155,255.091c1.938,45.346-32.735,74.912-70.688,60.276-8.089-3.12-19.586-12.62-21.225-17.539-.108-.324-1.765,1.1-3.872,3.326-28.477,30.083-76.808,27.094-101.895-6.3-29.637-39.455-8.843-95.009,40-106.865,4.837-1.173,53.155-1.839,58.505-.805,9.686,1.872,18.173,9.634,21.478,19.639.739,2.238.836,5.1,1.082,32.155.3,33.367.268,32.986,3.827,39.761,7.6,14.461,28.175,16.681,38.617,4.167,13.417-16.081,8.34-57.291-10.638-86.355C214.561,124.9,107.4,131.127,69.48,207.692c-30.363,61.3,1.233,131.633,68.992,153.569,26.888,8.7,73.15,8.091,111.9-1.483,95.76-23.659,172.363-102.087,191.536-196.1,3.578-17.544,4.454-27.522,4.444-50.648-.016-35.3-5.128-59.639-18.106-86.194-3.653-7.474-4.075-8.039-6-8.039a3.054,3.054,0,0,0-2.1.782M151.933,214.631c-30.563,7.9-40.75,46.06-18.243,68.335,22.734,22.5,60.154,11.846,68.445-19.485,1.125-4.254,1.476-47.233.4-48.879l-.709-1.083-22.878.022c-22.644.021-22.921.032-27.013,1.09" transform="translate(0.02 2.19)" fill="#fff" fill-rule="evenodd"/><path fill="#fff" fill-rule="evenodd"/><path fill="#fff" fill-rule="evenodd"/><path fill="#fff" fill-rule="evenodd"/><path fill="#fff" fill-rule="evenodd"/></g></g></g></g></svg>