<svg xmlns="http://www.w3.org/2000/svg" xmlns:xlink="http://www.w3.org/1999/xlink" width="870" height="870" viewBox="0 0 870 870"><defs><linearGradient id="a" x1="0.911" y1="0.062" x2="0.079" y2="0.981" gradientUnits="objectBoundingBox"><stop offset="0" stop-color="#942ae8"/><stop offset="1" stop-color="#2d22d4"/></linearGradient><clipPath id="c"><rect width="870" height="870"/></clipPath></defs><g id="b" clip-path="url(#c)"><rect width="870" height="870" fill="rgba(255,255,255,0)"/><rect width="870" height="870" rx="170" fill="url(#a)"/><g transform="translate(-114 -34.833)"><path d="M117.6,446.006A34.841,34.841,0,0,1,86.93,427.712H17.422a17.422,17.422,0,1,1,0-34.844H87.944a35.1,35.1,0,0,1,12.43-12,34.79,34.79,0,0,1,36.706,1.4A34.95,34.95,0,0,1,149.7,397.6a34.8,34.8,0,0,1-3.213,33.044,34.95,34.95,0,0,1-15.331,12.625A34.622,34.622,0,0,1,117.6,446.006Zm176.247-18.294H204.71a17.422,17.422,0,1,1,0-34.844h66.37a133.144,133.144,0,0,0,22.766,34.843Zm-34.37-87.982H69.688A69.767,69.767,0,0,1,0,270.043V69.689A69.767,69.767,0,0,1,69.688,0H376.317a69.768,69.768,0,0,1,69.689,69.689V182.061a17.422,17.422,0,1,1-34.844,0V69.689a34.884,34.884,0,0,0-34.844-34.844H69.688A34.884,34.884,0,0,0,34.844,69.689V270.043a34.884,34.884,0,0,0,34.844,34.844H263.719a133.7,133.7,0,0,0-4.25,33.509c0,.441,0,.89.007,1.335Zm-62.542-92.307a33.437,33.437,0,0,1-8.672-1.148,34.617,34.617,0,0,1-8.287-3.442,33.763,33.763,0,0,1-17.078-29.57v-86.8A33.766,33.766,0,0,1,179.971,96.9a34.625,34.625,0,0,1,8.289-3.442,33.343,33.343,0,0,1,17.4.014,34.612,34.612,0,0,1,8.332,3.485l74.789,43.4a34.143,34.143,0,0,1,0,59.031l-74.789,43.4a34.557,34.557,0,0,1-8.331,3.486A33.437,33.437,0,0,1,196.934,247.424Zm.806-119.613V211.92l72.475-42.055Z" transform="translate(289.001 259.999)" fill="#fff"/><g transform="translate(581.71 442.141)"><path d="M253.744,19.272c-.223.26-1.354,2.171-2.513,4.247-15.3,27.416-31.933,41.21-59.825,49.626-6.615,2-6.911,1.8-4.2-2.707A90.891,90.891,0,0,0,197.973,42.8c2.541-12.441,1.931-13.819-3.645-8.242a89.278,89.278,0,0,1-50.413,25.329c-1.631.225-3.451.484-4.045.576s-11.817.266-24.942.386c-24.819.227-25.011.235-32.358,1.493C39.858,69.654,7.034,104.411.69,149.04c-.607,4.268-.7,20.577-.149,25.077,6.455,52.393,45.384,87.63,98.207,88.9,42.208,1.012,77.973-12.432,106.138-39.9,6.288-6.13,6.414-7.189.415-3.468-46.557,28.877-109.943,34.984-145.563,14.024C1.115,199.177,5.652,113.683,67.575,86.008c54.594-24.4,114.727,14.269,117.343,75.459,1.17,27.379-19.765,45.23-42.68,36.393-4.884-1.883-11.825-7.62-12.815-10.59-.065-.2-1.066.664-2.338,2.008a40.193,40.193,0,0,1-61.522-3.805c-17.894-23.822-5.339-57.364,24.151-64.523,2.92-.709,32.094-1.11,35.324-.486a17.7,17.7,0,0,1,12.968,11.858c.446,1.351.5,3.079.653,19.415.183,20.146.162,19.916,2.311,24.007a14.264,14.264,0,0,0,23.316,2.516c8.1-9.709,5.036-34.591-6.423-52.139-28.248-43.258-92.947-39.5-115.844,6.728-18.333,37.013.744,79.477,41.656,92.721,16.234,5.256,44.166,4.885,67.562-.9,57.817-14.285,104.069-61.637,115.645-118.4,2.161-10.592,2.689-16.617,2.683-30.58-.009-21.313-3.1-36.009-10.932-52.042-2.206-4.513-2.461-4.854-3.624-4.854a1.844,1.844,0,0,0-1.265.472M91.8,137.038c-18.453,4.769-24.6,27.81-11.014,41.259,13.726,13.583,36.32,7.152,41.326-11.765.679-2.568.891-28.518.24-29.512l-.428-.654-13.813.013c-13.672.013-13.839.02-16.31.658" transform="translate(-0.057 -6.127)" fill="#fff" fill-rule="evenodd"/><path fill="#fff" fill-rule="evenodd"/><path fill="#fff" fill-rule="evenodd"/><path fill="#fff" fill-rule="evenodd"/><path fill="#fff" fill-rule="evenodd"/></g></g></g></svg>